<svg xmlns="http://www.w3.org/2000/svg" height="2666.667" width="4666.667"><path d="M4666.668 2666.667H0V-.002h4666.668v2666.669" fill="#fff" fill-opacity="0.0"/><path d="M2120.76 902.76l-18.693 5.733-12.547-29.053-28.36 5.027-12.947-20.214-10.24 6.56 17.32 27.027 26.88-4.76 13.054 30.227 28.133-8.64-2.6-11.907M3319.288 1947.708l-18.688 5.735-12.534-29.055-28.368 5.028-12.942-20.213-10.23 6.56 17.302 27.014 26.881-4.749 13.063 30.227 28.124-8.64-2.608-11.907M2005.611 2291.665s-99.74-338.028-107.744-412.588c-7.99-74.573 47.782-51.467 47.782-51.467s-46.916-142.08-13.003-175.801c33.94-33.72 64.529 29.134 64.529 29.134s10.266-172.481 46.441-172.534c67.365-.12 66.052 188.094 66.052 188.094s17.18-73.68 53.257-53.48c54.403 30.467-23.604 178.148-23.604 178.148s69.32.04 93.664 35c43.69 62.707-227.374 435.494-227.374 435.494" fill="#50bfa5"/><path d="M2038.2 2246.933s-287.507-48.08-350.04-99.026c-62.533-50.947-.64-73.907-.64-73.907s-144.427-74.04-142.76-124.387c1.68-50.346 73.427-24.746 73.427-24.746s-121.694-138.774-92.88-165.134c53.653-49.08 194.346 95.174 194.346 95.174s-41.773-68.6 2.214-79.467c66.36-16.36 115.32 152.787 115.32 152.787s-12.44-66.8 33.306-57.894c82.094 15.96 167.707 376.6 167.707 376.6" fill="#50bfa5"/><path d="M1870.493 1870.333c-45.853-8.293-33.306 57.894-33.306 57.894s-48.96-169.147-115.32-152.787c-43.987 10.867-2.214 79.467-2.214 79.467s-140.693-144.254-194.346-95.174l511.933 487.28c-9.12-46.546-89.853-362.786-166.747-376.68" fill="#3c8f7c"/><path d="M2120 2286.587s-151.413-153.974-227.653-170.014c-76.254-16.026-62.534 38.214-62.534 38.214s-151.28-132.294-186.346-100.24c-35.054 32.053 2.866 63 2.866 63s-126.013-22.32-144.04 19.026c-27.72 63.534 179.52 98.12 179.52 98.12s-86.853 6.027-66.706 45.867c30.373 60.08 504.893 6.027 504.893 6.027" fill="#355389"/><path d="M1502.293 2136.573c18.027-41.346 144.04-19.026 144.04-19.026s-37.92-30.947-2.866-63c35.066-32.054 181.64 82.253 181.64 82.253s-34.56-66.067 41.68-50.027c76.253 16.04 253.213 199.814 253.213 199.814l-617.707-150.014" fill="#466eb6"/><path d="M2361.043 698.545c-50.968 8.38-66.105 75.28-23.727 105.195 7.614 5.376 12.885 13.455 15.122 22.495l7.704 31.115c2.133 8.575 10.482 14.086 19.207 12.645l19.297-3.169c8.725-1.441 14.882-9.325 14.131-18.14-2.673-32.122-5.977-43.775 4.46-58.101 30.545-41.913-5.21-100.435-56.194-92.04" fill="#f7cc7f"/><path d="M2390.047 743.499c-1.592 3.642-.988 8.316-.619 13.699 4.173-2.375 9.024-5.353 10.587-9.703 1.106-3.053-.132-7.358-3.229-8.155-.354-.088-5.618 1.593-6.739 4.159zm-47.245 19.73c2.61 2.801 6.945 4.025 13.3 3.73-1.09-4.674-2.727-8.877-5.927-11.87-7.255-6.739-11.708 3.45-7.373 8.14zm23.446 71.31c-3.318-27.53-7.978-56.58-9.555-64.822-29.212 1.607-18.108-29.182-4.63-16.663 3.833 3.568 5.647 8.405 6.856 13.713a75.427 75.427 0 0027.825-8.11c-.472-6.783-1.135-11.929.752-16.279 2.876-6.562 11.178-8.346 14.57-1.946 1.267 2.403 1.488 5.47.574 8.007-1.96 5.426-7.86 9.01-13.005 11.826a1279.958 1279.958 0 006.34 65.633l-2.743.354a1257.437 1257.437 0 01-6.281-64.587c-8.582 4.262-17.916 6.946-27.472 7.845 1.991 10.529 6.415 38.855 9.526 64.69l-2.757.339" fill="#fae0b2"/><path d="M2352.215 825.469c.059.252.162.503.222.77l7.714 31.11c2.132 8.573 10.469 14.08 19.19 12.644l19.308-3.168c8.721-1.437 14.881-9.329 14.14-18.139-1.199-14.288-2.516-24.52-2.68-32.738l-57.894 9.521" fill="#96d9c9"/><path d="M2323.257 675.307l-15.238-27.813a5.578 5.578 0 012.22-7.548c2.692-1.475 6.058-.487 7.547 2.206l15.24 27.813a5.578 5.578 0 01-2.22 7.548c-2.708 1.49-6.073.472-7.549-2.206M2289.96 742.6l-33.218-2.916c-3.057-.267-5.325-2.958-5.044-6.015.268-3.057 2.959-5.325 6.016-5.057l33.218 2.902a5.57 5.57 0 015.057 6.03c-.267 3.056-2.958 5.31-6.03 5.057M2257.029 844.44a5.528 5.528 0 01.042-7.85 180.234 180.234 0 0126.688-21.778c2.546-1.703 5.993-1.013 7.71 1.533 1.702 2.56 1.027 6.007-1.534 7.71a170.41 170.41 0 00-25.056 20.441c-2.18 2.139-5.698 2.139-7.85-.056M2405.338 673.806c-2.954-.786-4.72-3.844-3.934-6.798a211.497 211.497 0 006.858-43.166c.178-3.072 2.79-5.417 5.849-5.254a5.551 5.551 0 015.254 5.848 222.125 222.125 0 01-7.214 45.437 5.566 5.566 0 01-6.813 3.933M2439.552 716.508a5.56 5.56 0 013.72-6.924l34.54-10.415a5.565 5.565 0 016.923 3.721 5.576 5.576 0 01-3.72 6.938l-34.525 10.4a5.576 5.576 0 01-6.938-3.72M2496.291 808.411c-.491 0-.998-.076-1.504-.214a174.518 174.518 0 01-34.59-13.864 5.565 5.565 0 01-2.287-7.523c1.428-2.702 4.79-3.73 7.507-2.287a163.602 163.602 0 0032.379 12.973c2.947.829 4.667 3.9 3.838 6.862a5.569 5.569 0 01-5.343 4.053" fill="#fae0b2"/><path d="M3002.148 1054.125l-17.425-41.203-43.81-9.003c-4.98-1.026-6.647-7.328-2.784-10.665l33.79-29.305-4.981-44.457c-.568-5.062 4.924-8.578 9.3-5.949l38.297 23.092 40.74-18.472c4.641-2.104 9.698 2.028 8.524 6.99l-10.114 43.573 30.153 33.042c3.447 3.763 1.08 9.83-4.015 10.267l-44.567 3.841-22.085 38.893c-2.519 4.428-9.034 4.05-11.023-.644" fill="#f7cc7f"/><path d="M3279.54 912.75l-7.16 28.844-47.697-6.398-15.676 40.881-36.47 1.046.546 18.462 48.748-1.4 14.867-38.742 49.598 6.655 10.781-43.404-17.537-5.945" fill="#f48c7f"/><path d="M2854.673 2295.454h-838.205c-32.015 0-57.952-26.92-57.952-60.12v-35.76c0-33.2 25.937-60.12 57.952-60.12h838.205c-38.336 43.466-39.002 109.893-1.54 154.187l1.54 1.813" fill="#b75742"/><path d="M2841.75 2157.333h-464.92c-32.026 0-57.968 26.92-57.968 60.12 0 33.215 25.942 60.121 57.969 60.121h464.954c-21.74-36.88-21.688-83.454-.034-120.24" fill="#fae0b2"/><path d="M2560.21 2031.106c1.226-2.28-.628-4.934-3.441-4.934h-443.53c-34.762 0-62.94 25.36-62.94 56.653 0 31.281 28.178 56.653 62.94 56.653h443.64c2.828 0 4.699-2.667 3.457-4.96-17.554-32.745-17.522-70.812-.126-103.412" fill="#86b1f2"/><path d="M2557.417 2036.718h-219.811c-40.8 0-73.862 21.254-73.862 47.467 0 26.228 33.061 47.48 73.862 47.48h221.255c-15.118-30.213-15.526-64.613-1.444-94.947" fill="#f7cc7f"/><path d="M2500.637 2059.227h-28.627c-6.152 0-11.153 2.068-11.153 4.614v.413h39.78v-5.027" fill="#b75742"/><path d="M2525.063 2070.8c0-6.401-7.467-11.574-16.7-11.574h-36.73c7.002 0 12.656 3.933 12.656 8.773l-.17 124.12 20.293-15.96 20.697 15.96-.046-121.32" fill="#f47458"/><path d="M2478.665 2022.094h-258.07c-22.87 0-41.423-22.027-41.423-49.187 0-27.16 18.552-49.174 41.423-49.174h258.07c-19.723 27.267-20.499 67.254-1.84 95.561l1.84 2.8" fill="#fae0b2"/><path d="M2179.187 1972.91c0-27.162 19.002-49.175 42.426-49.175h261.97c1.22 0 2.21-1.16 2.195-2.573-.015-1.4-.991-2.52-2.196-2.52h-415.6c-25.834 0-46.803 24.293-46.803 54.267 0 29.985 20.969 54.279 46.803 54.279h415.6c1.205 0 2.18-1.133 2.196-2.52.015-1.427-.991-2.574-2.196-2.574h-261.969c-23.424 0-42.426-22.026-42.426-49.185" fill="#466eb6"/><path d="M2433.59 1947.896h-28.62c-6.152 0-11.154 2.04-11.154 4.533v.414h39.774v-4.947" fill="#184655"/><path d="M2458.016 1959.255c0-6.268-7.48-11.36-16.693-11.36h-36.735c6.997 0 12.667 3.866 12.667 8.614l-.181 121.719 20.298-15.653 20.69 15.653-.046-118.973" fill="#3c8f7c"/><path d="M2889.837 1196.061l38.1-10.025-25.813 344.403-45.716 1.52 23.065-323.385a13.98 13.98 0 0110.364-12.513" fill="#184655"/><path d="M2905.536 1540.255c-.867.08-1.734.067-2.62-.04-7.566-.894-13.165-8.414-12.515-16.8l25.375-323.84c.65-8.39 7.314-14.47 14.881-13.572 7.568.894 13.166 8.418 12.516 16.809l-25.356 323.842c-.596 7.401-5.852 13.014-12.281 13.601" fill="#f7cc7f"/><path d="M2554.906 1557.51c.018.24.018.465.054.705 1.182 13.174 11.39 23.04 22.78 22.013l321.752-28.799c11.39-1.014 19.664-12.52 18.482-25.694a24.794 24.794 0 00-.215-1.653l-362.853 33.427" fill="#f7cc7f"/><path d="M2778.954 1905.344c-21.072 11.68-85.465-8.799-85.465-10.652-.92 17.6-72.117 189.866-72.117 189.866l.068 53s146.671 6.988 144.574-5.973c-2.114-12.96-10.007-4.533-39.263-29.014-2.592-2.173-43.68-11.705-32.563-36.025 22.385-48.975 69.934-130.628 84.766-161.202" fill="#f7a491"/><path d="M2616.597 2139.453l160.585.04c5.774-.587 7.14-5.307 5.09-8.173-4.219-5.893-34.983-19.813-55.669-29.04-36.025 4.2-99.364-9.653-105.155-17.866-15.254 20.426-8.08 54.372-4.851 55.039" fill="#3c8f7c"/><path d="M2581.4 1781.664c-2.188-6.52 138.237-66.106 144.505-59.293 11.136 12.04-75.973 238.094-75.973 238.094l100.084 30.573s104.005-261.16 99.663-308.933c-4.342-47.76-56.45-102.041-169.35-67.308-112.9 34.747-98.928 166.867-98.928 166.867" fill="#355389"/><path d="M2872.118 1935.052c-23.72-4.307-54.422-5.535-79.03-5.961 2.914 21.893 16.968 134.175 14.391 141.08-10.411 27.948-33.527 41.028-33.527 41.028s109.023 98.373 115.597 87.013c6.591-11.36-4.851-9.84-11.976-47.32-.622-3.333-16.4-55.653-17.359-83.867-1.866-53.813 11.087-102.08 11.904-131.973" fill="#f7a491"/><path d="M2837.111 1567.723c-15.215-8.107-54.692-8.4-98.11-5.586-84.645 5.492-168.213 22.146-248.723 48.826l-53.879 17.84.159-55.24s-171.41-28.68-177.383 13.8c-8.96 63.973 2.173 193.865 59.286 222.853 177.402 90.053 426-143.453 426.901-112.906 1.202 41.027 35.784 193.706 44.638 260.545 24.598.426 66.85.414 85.175-3.8 3.57-130.946 5.23-363.225-38.064-386.332" fill="#466eb6"/><path d="M2770.616 2113.505l122.576 97.894c4.844 3.227 8.887.441 9.118-3.08.48-7.239-14.514-37.506-24.647-57.745-30.542-19.588-70.825-70.641-70.094-80.668-12.93 10.906-39.019 41.026-36.953 43.6" fill="#3c8f7c"/><path d="M2493.207 1033.734c-4.119-37.637-8.452-75.412-39.643-103.004-25.25-22.31-57.343-26.092-89.1-14.148-89.928 33.84-43.594 113.707-158.265 194.232-35.631 25.022-74.906 42.148-101.733 75.844-37.56 47.162-23.366 103.893 10.84 141.769 163.763 181.225 346.573-63.525 359.71-122.277 9.754-43.708 20.84-148.193 18.191-172.416" fill="#13375b"/><path d="M2459.947 1245.365c-13.377-24.658-27.152-44.227-27.152-44.227-13.882-24.663-49.722-37.14-49.722-37.14s-11.982.244-25.757.92c-.858 2.283-1.717 3.917-2.605 4.571-5.164 3.881-34.829-1.128-53.967 11.874-64.202 55.03-46.443 321.759-41.402 406l195.518 1.854s-24.654-181.267 15.062-227.84c27.673-32.433 9.868-79.433-9.975-116.012" fill="#50bfa5"/><path d="M2371.823 1073.755s-10.74 76.756-18.243 95.407c-7.52 18.65 41.257 58.538 81.845 70.645 40.588 12.108-12.395-41.198-10.724-61.136 1.686-19.937 9.068-114.334 9.068-114.334l-61.946 9.418" fill="#f7a491"/><path d="M2431.703 1091.41c1.195-15.619 2.06-27.07 2.06-27.07l-61.948 9.42s-1.553 9.02-3.285 21.77c25.114 14.573 47.69 9.974 63.173-4.12" fill="#f47458"/><path d="M2391.254 933.56s-24.413 5.506-39.494 28.512c-15.065 23.007-25.412 90.741 24.247 122.34 49.644 31.628 88.245-13.1 88.896-56.708.635-43.623-8.713-101.828-73.649-94.144" fill="#f7a491"/><path d="M2476.26 1014.051c-4.23 10.531-12.63 17.06-18.764 14.594-6.132-2.465-7.67-12.996-3.439-23.526 4.23-10.531 12.631-17.06 18.764-14.594 6.132 2.48 7.67 13.01 3.439 23.526" fill="#f7a491"/><path d="M2398.578 932.142s-31.123 69.809-58.464 76.048c-27.356 6.24-26.943 41.365-26.943 41.365s.588-81.125 26.237-99.725c25.619-18.615 59.17-17.688 59.17-17.688" fill="#13375b"/><path d="M2350.97 1022.702c3.598 11.34.304 22.505-7.366 24.947-7.656 2.427-16.8-4.796-20.397-16.136-3.597-11.325-.303-22.49 7.367-24.932 7.656-2.427 16.8 4.781 20.397 16.12M2700.668 1526.734c-11.735-4.241-29.187-4.775-28.903-6.32 1.187-6.268 53.008 13.839 46.004 4.693-3.895-5.093-42.677-23.134-52.122-20.16-9.144 2.894-69.189 19.746-69.189 19.746l-164.155-38.467s-41.423-94.146-45.469-175.035c-34.252 4.63-57.57 13.095-87.326 29.61 14.343 77.36 49.246 202.746 87.811 226.28 16.215 9.892 209.941-11.854 209.941-11.854s42.694-3.013 49.665-5.694c5.299-2.04 18.923-9.707 26.328-11.813 16.85-4.76 46.856 7.213 46.94 3.906.067-2.399-7.54-10.56-19.525-14.892" fill="#f7a491"/><path d="M2387.847 1224.763c-1.585-24.89-11.023-48.928-37.502-56.663-16.41-4.8-34.815-.206-47.937 10.509-15.603 12.74-19.962 33.19-19.888 52.539.161 43.938 3.17 89.493 11.184 132.757 29.766-16.521 64.509-26.454 98.766-31.088-.014-.256-2.553-75.16-4.623-108.054" fill="#96d9c9"/><path d="M1879.267 1271.733l-254.48-47.386a9.43 9.43 0 01-7.534-10.987l31.88-171.187a9.43 9.43 0 0110.987-7.533l254.467 47.387c5.12.946 8.493 5.866 7.533 10.973l-31.88 171.2c-.947 5.107-5.867 8.48-10.973 7.533" fill="#f7cc7f"/><path d="M1758.133 1076.027l-77.466-14.427a9.43 9.43 0 01-7.534-10.987l4.854-26.04c.96-5.12 5.866-8.493 10.986-7.533l77.454 14.427c5.12.946 8.48 5.866 7.533 10.973l-4.853 26.053c-.947 5.107-5.867 8.48-10.974 7.534" fill="#f7cc7f"/><path d="M1890.853 1265.187a9.415 9.415 0 01-10.786 6.693l-256.134-47.693c-4.76-.894-8.08-5.254-7.653-10.08l13.4-153.454a9.5 9.5 0 013.68-6.68 9.484 9.484 0 017.427-1.76l284.546 52.987c2.6.493 4.88 2.04 6.267 4.293a9.386 9.386 0 011.067 7.52l-41.814 148.174" fill="#fae0b2"/><path d="M3058.054 704.466l-43.582 11.894-9.38-52.794 14.258-2.532 6.604 37.184 28.291-7.71 3.809 13.958" fill="#50bfa5"/><path d="M1669.747 1429.707c10.92-.894 27.666 3.92 35.186 9.013 1.12 1.053 9.76 4.493 18.747 19.373l-2.027 1.4c-9.466-9.92-15.84-12.146-23.44-14.426-12.506-3.214-25.12-.814-26.146-.254l-2.32-15.106" fill="#355389"/><path d="M1722.667 1458.787s-66.494 11.093-60.294 63.04c6.2 51.946 76.347 92.346 138.96 60.226 84.214-43.213 50.947-153.093-9-161.586-59.933-8.494-69.666 38.32-69.666 38.32" fill="#f47458"/><path d="M1750.88 1435.92s17.347-17.813 55.347-1.613c38.013 16.2 40.76 91.76 6.866 87.373-33.906-4.387-89.32-74.867-62.213-85.76" fill="#f48c7f"/><path d="M2208.278 745.859l-273.472 97.55c-8.805 3.148-18.496-1.459-21.645-10.263l-50.472-141.507c-3.148-8.819 1.459-18.51 10.264-21.658l273.472-97.55c8.819-3.135 18.51 1.458 21.658 10.277l50.458 141.493c3.149 8.819-1.43 18.51-10.263 21.658" fill="#86b1f2"/><path d="M2027.027 709.48c10.053 28.187-4.64 59.2-32.84 69.253-28.187 10.054-59.187-4.64-69.254-32.84-10.053-28.186 4.654-59.186 32.84-69.253 28.187-10.053 59.2 4.653 69.254 32.84" fill="#fff" fill-opacity="0.0"/><path d="M1983.747 701.893c2.973 8.32-1.374 17.454-9.68 20.427-8.32 2.96-17.454-1.373-20.427-9.68-2.96-8.32 1.373-17.467 9.693-20.427 8.307-2.96 17.454 1.374 20.414 9.68M2009.787 746.453l-48.094 17.16-1.933-5.4c-3.507-9.84 1.627-20.68 11.48-24.186l12.427-4.44c9.853-3.507 20.68 1.626 24.2 11.48l1.92 5.386" fill="#86b1f2"/><path d="M2033.76 679.893a6.932 6.932 0 01-6.507-4.586c-1.28-3.587.6-7.547 4.187-8.827l119.547-42.64a6.918 6.918 0 012.32-.413 6.918 6.918 0 016.506 4.6c1.28 3.586-.586 7.546-4.186 8.826l-119.534 42.64a6.98 6.98 0 01-2.333.4M2066.04 709.707a6.948 6.948 0 01-6.52-4.6c-1.28-3.587.6-7.547 4.2-8.827l93.36-33.307a6.906 6.906 0 018.827 4.187 6.848 6.848 0 01-.254 5.28c-.8 1.667-2.186 2.933-3.933 3.547l-93.36 33.306a6.918 6.918 0 01-2.32.414" fill="#fff" fill-opacity="0.0"/><path d="M2633.189 1813.16h-660.317c-20.516 0-37.123 16.626-37.123 37.133v31.226c0 20.507 16.607 37.133 37.123 37.133h660.317l-.34-.359c-28.254-29.4-28.108-75.906.34-105.133" fill="#f47458"/><path d="M2621.496 1828.777h-353.001c-20.506 0-37.135 16.626-37.135 37.134 0 20.505 16.63 37.132 37.135 37.132h352.985c-12.962-23-12.962-51.293.016-74.266M3173.636 1816.199l-50.065-125.576c-2.508-6.319.58-13.479 6.883-16l180.11-71.785c6.323-2.52 13.475.56 16.004 6.879l50.045 125.573c2.529 6.321-.56 13.481-6.862 16l-180.11 71.787c-6.323 2.521-13.496-.56-16.005-6.878" fill="#fae0b2"/><path d="M3343.546 1743.585l-45-112.84a3.536 3.536 0 011.974-4.59c1.83-.719 3.885.161 4.605 1.974l44.979 112.84a3.536 3.536 0 01-1.973 4.59 3.529 3.529 0 01-4.585-1.974M3322.102 1728.717l-36.93-92.639a3.535 3.535 0 011.982-4.587c1.818-.734 3.86.159 4.596 1.973l36.93 92.64a3.553 3.553 0 01-1.982 4.6 3.537 3.537 0 01-4.596-1.987M3316.768 1754.254l-44.987-112.838a3.537 3.537 0 011.978-4.588 3.52 3.52 0 014.588 1.974l44.987 112.84a3.535 3.535 0 01-1.978 4.586c-1.815.72-3.874-.159-4.588-1.974M3293.135 1733.837l-34.705-87.092a3.528 3.528 0 011.964-4.589 3.529 3.529 0 014.596 1.975l34.705 87.092a3.509 3.509 0 01-1.964 4.586 3.54 3.54 0 01-4.596-1.972" fill="#466eb6"/><path d="M3342.324 1618.706l-.903-2.266c-.348-.838-1.25-1.265-2.03-.947l-17.103 6.814c-.779.306-1.148 1.253-.82 2.08l.902 2.28c.328.827 1.251 1.253 2.03.948l17.083-6.815c.8-.32 1.169-1.253.84-2.094M3346.214 1628.424l-.904-2.267c-.349-.84-1.252-1.267-2.053-.947l-17.082 6.815c-.8.306-1.15 1.24-.82 2.08l.902 2.278c.329.828 1.253 1.255 2.033.947l17.102-6.812c.78-.32 1.15-1.255.822-2.094M3350.082 1638.144l-.905-2.267c-.35-.84-1.254-1.266-2.035-.948l-17.101 6.814c-.781.306-1.151 1.24-.822 2.08l.904 2.28c.35.826 1.254 1.254 2.035.947l17.102-6.826c.78-.308 1.15-1.241.822-2.08M3353.95 1647.867l-.906-2.268c-.329-.84-1.255-1.265-2.037-.946l-17.08 6.813c-.802.307-1.173 1.241-.844 2.08l.906 2.28c.35.828 1.255 1.254 2.037.935l17.1-6.813c.783-.307 1.153-1.241.824-2.08M3357.818 1657.587l-.906-2.267c-.33-.84-1.237-1.267-2.04-.947l-17.08 6.813c-.782.307-1.153 1.24-.823 2.08l.906 2.267c.33.84 1.236 1.267 2.04.945l17.079-6.81c.803-.308 1.154-1.24.824-2.081M3361.686 1667.31l-.907-2.266c-.33-.842-1.238-1.267-2.022-.947l-17.099 6.813c-.783.307-1.155 1.24-.825 2.079l.908 2.267c.33.841 1.238 1.266 2.021.946l17.1-6.812c.783-.306 1.154-1.24.824-2.08M3365.554 1677.028l-.908-2.265c-.33-.84-1.24-1.268-2.024-.948l-17.098 6.815c-.784.305-1.136 1.239-.805 2.08l.908 2.266c.33.839 1.24 1.266 2.024.946l17.077-6.812c.806-.308 1.157-1.241.826-2.082M3369.444 1686.746l-.91-2.267c-.33-.84-1.24-1.266-2.025-.945l-17.097 6.812c-.786.306-1.158 1.24-.827 2.08l.91 2.267c.33.84 1.24 1.266 2.025.947l17.097-6.814c.786-.306 1.158-1.24.827-2.08M3373.312 1696.465l-.91-2.267c-.331-.84-1.242-1.266-2.029-.945l-17.096 6.813c-.786.306-1.138 1.24-.807 2.08l.911 2.267c.331.84 1.242 1.266 2.028.945l17.096-6.811c.787-.308 1.139-1.242.807-2.082M3377.18 1706.19l-.911-2.268c-.332-.839-1.243-1.266-2.03-.947l-17.096 6.814c-.787.306-1.16 1.24-.808 2.08l.891 2.267c.332.839 1.244 1.266 2.03.947l17.096-6.813c.787-.307 1.16-1.242.829-2.08M3381.049 1715.91l-.913-2.282c-.311-.826-1.224-1.253-2.012-.934l-17.094 6.815c-.788.307-1.162 1.24-.83 2.078l.913 2.268c.332.84 1.245 1.267 2.033.946l17.094-6.813c.788-.307 1.14-1.24.809-2.078M3384.939 1725.626l-.914-2.28c-.333-.827-1.226-1.253-2.015-.948l-17.092 6.827c-.79.307-1.163 1.24-.831 2.081l.914 2.266c.332.841 1.225 1.267 2.014.947l17.093-6.814c.789-.32 1.163-1.24.83-2.08" fill="#355389"/><path d="M3432.165 1715.628l-71.491 101.787c-.148.226-.297.48-.381.747l-7.28 22.36c-.847 2.598 2.158 4.76 4.338 3.106l19.132-14.427a2.43 2.43 0 00.614-.627l71.681-102.053a2.79 2.79 0 00-.804-3.96l-12.02-7.693c-1.27-.8-2.943-.468-3.79.76" fill="#b75742"/><path d="M3377.034 1828.677l-.166.255-18.48 13.919-5.014-3.373 6.9-21.2c5.406 2.96 11.87 5.999 16.76 10.4" fill="#f7cc7f"/><path d="M2707.96 613.664c10.302 8.218 28.205 34.638 51.02 53.194 13.36 10.85 23.663 8.094 40.717 10.144 80.904 9.79 58.99 26.332 68.692 27.94-2.756 6.344-27.975 59.927-32.676 70.76-4.347 9.985-11.858 14.456-22.744 12.954-16.736-2.315-33.613-4.03-50.084-7.599-42.237-9.154-65.723-30.273-95.996-55.933-8.023-6.804-10.003-15.287-5.832-24.9 19.369-44.765 44.817-82.442 46.902-86.56" fill="#466eb6"/><path d="M2877.149 769.418c-.358 17.618.984 21.16-6.6 18.495-4.544-1.61-8.962-3.72-13.272-5.939-3.023-1.556-3.149-3.63-.68-6.117 3.595-3.595 7.28-7.12 10.875-10.607-2.63-6.922.376-14.971 6.85-18.763 1.307-.77.359.876 11.627-25.06-37.276-4.597-63.57-7.674-109.02-13.272-12.146-1.485-22.967-6.225-32.358-14.077-32.483-27.17-64.947-54.34-97.394-81.529-4.4-3.702-4.955-9.104-1.467-13.254 2.683-3.184 6.225-3.345 10.034-2.862 10.375 1.306 112.098 13.934 122.419 15.15 13.576 1.574 25.524 6.69 36.024 15.473 31.892 26.723 63.874 53.338 95.802 79.99 4.4 3.667 5.581 7.012 4.043 11.09-1.7 4.472-5.402 6.6-10.965 5.402-4.042-.877-5.813.34-7.208 4.078-6.26 16.85-10.643 20.588-9.123 26.74 1.163 4.759-4.49 12.987-9.587 15.062" fill="#86b1f2"/><path d="M3045.895 1967.189l18.537 17.679a492.724 492.724 0 01105.477 146.16l2.852 6.013s48.54 4.293 55.313-39.6c-42.58-48.079-77.633-99.427-106.566-156.532l-8.774-20.521-66.839 46.8" fill="#466eb6"/><path d="M3112.671 1920.335c2.39 3.413-10.625 16.613-29.086 29.466-18.423 12.868-35.412 20.68-37.782 17.267-2.39-3.413 10.72-16.773 29.163-29.625 18.442-12.868 35.336-20.535 37.705-17.108" fill="#86b1f2"/><path d="M3112.75 1920.453l-.039-.065s-36.975 31.28-52.186 34.465l4.7 6.402c5.561-3 11.886-6.908 18.364-11.454 18.25-12.708 31.167-25.748 29.16-29.348" fill="#355389"/><path d="M3162.13 2011.266c.078 5.386-2.004 28.666-40.707 38.374 2.53 3.466 5.04 6.972 7.492 10.506 24.518-7.252 35.531-19.827 40.493-29.414.778-1.506 1.732-3.545 2.355-5.12-3.27-4.745-6.48-9.519-9.632-14.346" fill="#b75742"/><path d="M3124.895 2042.762l-57-2.041 13.506 11.467-8.058 14.64 53.931-13.746-2.379-10.32M3130.082 2056.014l-20.24 35.266 14.232-5.412 5.488 11.199 9.514-37.093-8.994-3.96" fill="#b75742"/><path d="M3137.816 2065.572c-9.99.706-18.7-7.08-19.436-17.388-.735-10.306 6.795-19.24 16.803-19.946 9.989-.707 18.7 7.081 19.435 17.387.736 10.306-6.775 19.24-16.802 19.947" fill="#f47458"/><path d="M3258.775 1265.348l-120.007-107.081c-7.79-6.96-4.55-21.276 6.211-27.37l95.765-54.228c6.149-3.47 13.045-3.149 17.49.817l120.008 107.081c7.79 6.96 4.549 21.276-6.212 27.37l-95.764 54.228c-6.149 3.47-13.046 3.149-17.491-.817" fill="#9bc1f9"/><path d="M3253.079 1180.165l-9.996-82.27c-.391-3.152 1.917-6.52 5.112-7.521 3.215-1.004 6.141.744 6.533 3.893l9.191 75.705 91.01 22.004c2.946.717 4.327 3.916 3.05 7.147-1.278 3.228-4.74 5.264-7.708 4.544l-97.192-23.502" fill="#fff" fill-opacity="0.0"/><path d="M1227.223 2294.467c-6.422 0-11.629 6.025-11.629 13.465 0 7.428 5.207 13.455 13.02 4.415h2363.495c3.024 0 5.474-3.96 5.496-8.88.022-4.961-2.45-9-5.496-9H1227.223" fill="#184655"/><path d="M1686.067 803.32l12.4 24.547 28.026-.907 11.96 28.48L1768 845.28l14.947 31.613 28.36-6.013 19.346 28.08-10.626 7.32-14.467-20.987-29.933 6.347-14.36-30.4-30.04 10.333-13.2-31.426-27.36.88-11.507-22.747-17.84 4.347-3.053-12.547 27.8-6.76" fill="#f7cc7f"/><path d="M3186.8 1431.024l25.468 10.346 20.544-19.093 27.734 13.627 15.598-27.08 32.041 14.026 17.432-23.16 33.03 8.454-3.193 12.493-24.706-6.307-18.4 24.44-30.785-13.48-15.866 27.535-30.619-15.042-20.049 18.641-23.593-9.587-10.611 15-10.53-7.452 16.505-23.36" fill="#50bfa5"/></svg>