<svg width="182" height="109" viewBox="0 0 182 109" fill="none" xmlns="http://www.w3.org/2000/svg">
<path d="M79.662 29.52H84.542V31H77.842V17.06H79.662V29.52ZM96.4748 25.1C96.4748 25.4467 96.4548 25.8133 96.4148 26.2H87.6548C87.7215 27.28 88.0882 28.1267 88.7548 28.74C89.4348 29.34 90.2548 29.64 91.2148 29.64C92.0015 29.64 92.6548 29.46 93.1748 29.1C93.7082 28.7267 94.0815 28.2333 94.2948 27.62H96.2548C95.9615 28.6733 95.3748 29.5333 94.4948 30.2C93.6148 30.8533 92.5215 31.18 91.2148 31.18C90.1748 31.18 89.2415 30.9467 88.4148 30.48C87.6015 30.0133 86.9615 29.3533 86.4948 28.5C86.0282 27.6333 85.7948 26.6333 85.7948 25.5C85.7948 24.3667 86.0215 23.3733 86.4748 22.52C86.9282 21.6667 87.5615 21.0133 88.3748 20.56C89.2015 20.0933 90.1482 19.86 91.2148 19.86C92.2548 19.86 93.1748 20.0867 93.9748 20.54C94.7748 20.9933 95.3882 21.62 95.8148 22.42C96.2548 23.2067 96.4748 24.1 96.4748 25.1ZM94.5948 24.72C94.5948 24.0267 94.4415 23.4333 94.1348 22.94C93.8282 22.4333 93.4082 22.0533 92.8748 21.8C92.3548 21.5333 91.7748 21.4 91.1348 21.4C90.2148 21.4 89.4282 21.6933 88.7748 22.28C88.1348 22.8667 87.7682 23.68 87.6748 24.72H94.5948ZM98.1972 25.5C98.1972 24.3667 98.4238 23.38 98.8772 22.54C99.3305 21.6867 99.9572 21.0267 100.757 20.56C101.571 20.0933 102.497 19.86 103.537 19.86C104.884 19.86 105.991 20.1867 106.857 20.84C107.737 21.4933 108.317 22.4 108.597 23.56H106.637C106.451 22.8933 106.084 22.3667 105.537 21.98C105.004 21.5933 104.337 21.4 103.537 21.4C102.497 21.4 101.657 21.76 101.017 22.48C100.377 23.1867 100.057 24.1933 100.057 25.5C100.057 26.82 100.377 27.84 101.017 28.56C101.657 29.28 102.497 29.64 103.537 29.64C104.337 29.64 105.004 29.4533 105.537 29.08C106.071 28.7067 106.437 28.1733 106.637 27.48H108.597C108.304 28.6 107.717 29.5 106.837 30.18C105.957 30.8467 104.857 31.18 103.537 31.18C102.497 31.18 101.571 30.9467 100.757 30.48C99.9572 30.0133 99.3305 29.3533 98.8772 28.5C98.4238 27.6467 98.1972 26.6467 98.1972 25.5ZM113.246 21.54V28C113.246 28.5333 113.359 28.9133 113.586 29.14C113.812 29.3533 114.206 29.46 114.766 29.46H116.106V31H114.466C113.452 31 112.692 30.7667 112.186 30.3C111.679 29.8333 111.426 29.0667 111.426 28V21.54H110.006V20.04H111.426V17.28H113.246V20.04H116.106V21.54H113.246ZM128.031 20.04V31H126.211V29.38C125.864 29.94 125.377 30.38 124.751 30.7C124.137 31.0067 123.457 31.16 122.711 31.16C121.857 31.16 121.091 30.9867 120.411 30.64C119.731 30.28 119.191 29.7467 118.791 29.04C118.404 28.3333 118.211 27.4733 118.211 26.46V20.04H120.011V26.22C120.011 27.3 120.284 28.1333 120.831 28.72C121.377 29.2933 122.124 29.58 123.071 29.58C124.044 29.58 124.811 29.28 125.371 28.68C125.931 28.08 126.211 27.2067 126.211 26.06V20.04H128.031ZM132.924 21.82C133.244 21.1933 133.697 20.7067 134.284 20.36C134.884 20.0133 135.61 19.84 136.464 19.84V21.72H135.984C133.944 21.72 132.924 22.8267 132.924 25.04V31H131.104V20.04H132.924V21.82ZM148.565 25.1C148.565 25.4467 148.545 25.8133 148.505 26.2H139.745C139.811 27.28 140.178 28.1267 140.845 28.74C141.525 29.34 142.345 29.64 143.305 29.64C144.091 29.64 144.745 29.46 145.265 29.1C145.798 28.7267 146.171 28.2333 146.385 27.62H148.345C148.051 28.6733 147.465 29.5333 146.585 30.2C145.705 30.8533 144.611 31.18 143.305 31.18C142.265 31.18 141.331 30.9467 140.505 30.48C139.691 30.0133 139.051 29.3533 138.585 28.5C138.118 27.6333 137.885 26.6333 137.885 25.5C137.885 24.3667 138.111 23.3733 138.565 22.52C139.018 21.6667 139.651 21.0133 140.465 20.56C141.291 20.0933 142.238 19.86 143.305 19.86C144.345 19.86 145.265 20.0867 146.065 20.54C146.865 20.9933 147.478 21.62 147.905 22.42C148.345 23.2067 148.565 24.1 148.565 25.1ZM146.685 24.72C146.685 24.0267 146.531 23.4333 146.225 22.94C145.918 22.4333 145.498 22.0533 144.965 21.8C144.445 21.5333 143.865 21.4 143.225 21.4C142.305 21.4 141.518 21.6933 140.865 22.28C140.225 22.8667 139.858 23.68 139.765 24.72H146.685ZM98.1679 51.14C98.1679 52.3 97.7679 53.2667 96.9679 54.04C96.1812 54.8 94.9745 55.18 93.3479 55.18H90.6679V61H88.8479V47.06H93.3479C94.9212 47.06 96.1145 47.44 96.9279 48.2C97.7545 48.96 98.1679 49.94 98.1679 51.14ZM93.3479 53.68C94.3612 53.68 95.1079 53.46 95.5879 53.02C96.0679 52.58 96.3079 51.9533 96.3079 51.14C96.3079 49.42 95.3212 48.56 93.3479 48.56H90.6679V53.68H93.3479ZM99.7499 55.48C99.7499 54.36 99.9766 53.38 100.43 52.54C100.883 51.6867 101.503 51.0267 102.29 50.56C103.09 50.0933 103.977 49.86 104.95 49.86C105.91 49.86 106.743 50.0667 107.45 50.48C108.157 50.8933 108.683 51.4133 109.03 52.04V50.04H110.87V61H109.03V58.96C108.67 59.6 108.13 60.1333 107.41 60.56C106.703 60.9733 105.877 61.18 104.93 61.18C103.957 61.18 103.077 60.94 102.29 60.46C101.503 59.98 100.883 59.3067 100.43 58.44C99.9766 57.5733 99.7499 56.5867 99.7499 55.48ZM109.03 55.5C109.03 54.6733 108.863 53.9533 108.53 53.34C108.197 52.7267 107.743 52.26 107.17 51.94C106.61 51.6067 105.99 51.44 105.31 51.44C104.63 51.44 104.01 51.6 103.45 51.92C102.89 52.24 102.443 52.7067 102.11 53.32C101.777 53.9333 101.61 54.6533 101.61 55.48C101.61 56.32 101.777 57.0533 102.11 57.68C102.443 58.2933 102.89 58.7667 103.45 59.1C104.01 59.42 104.63 59.58 105.31 59.58C105.99 59.58 106.61 59.42 107.17 59.1C107.743 58.7667 108.197 58.2933 108.53 57.68C108.863 57.0533 109.03 56.3267 109.03 55.5ZM115.766 51.82C116.086 51.1933 116.539 50.7067 117.126 50.36C117.726 50.0133 118.452 49.84 119.306 49.84V51.72H118.826C116.786 51.72 115.766 52.8267 115.766 55.04V61H113.946V50.04H115.766V51.82ZM123.626 51.54V58C123.626 58.5333 123.74 58.9133 123.966 59.14C124.193 59.3533 124.586 59.46 125.146 59.46H126.486V61H124.846C123.833 61 123.073 60.7667 122.566 60.3C122.06 59.8333 121.806 59.0667 121.806 58V51.54H120.386V50.04H121.806V47.28H123.626V50.04H126.486V51.54H123.626ZM138.132 50.04L131.532 66.16H129.652L131.812 60.88L127.392 50.04H129.412L132.852 58.92L136.252 50.04H138.132Z" fill="black"/>
<circle cx="26.947" cy="26.947" r="26.447" fill="#FECD50" stroke="#FECD50"/>
<path d="M70.628 48.3194C73.6376 50.294 73.6376 54.706 70.628 56.6806L35.2428 79.8961C31.9177 82.0776 27.5 79.6923 27.5 75.7155L27.5 29.2845C27.5 25.3077 31.9177 22.9224 35.2428 25.1039L70.628 48.3194Z" fill="#72AAFF"/>
</svg>
